<svg xmlns="http://www.w3.org/2000/svg" xmlns:xlink="http://www.w3.org/1999/xlink" width="160" height="75" viewBox="0 0 160 75">
  <defs>
    <path id="a" d="M0 73.93h159.27V.05H0z"/>
  </defs>
  <g fill="none" fill-rule="evenodd">
    <path fill="#231f20" d="M82.05 71.522a17.264 17.264 0 0 1 12.264-5.06h45.434c10.765 0 19.522-8.663 19.522-19.31V.051H0v47.101c0 10.647 8.704 19.31 19.402 19.31h45.554c4.633 0 8.989 1.796 12.264 5.06l2.415 2.409 2.415-2.409zm72.629-66.88v42.51c0 8.115-6.699 14.718-14.93 14.718H94.313c-5.474 0-10.643 1.985-14.679 5.616-4.035-3.63-9.205-5.616-14.679-5.616H19.402c-8.166 0-14.81-6.603-14.81-14.718V4.642h150.087z" />
    <path fill="#231f20" d="M58.141 37.942H47.958c.187 2.562 1.624 3.811 3.467 3.811 1.656 0 2.78-1.093 3.03-2.592l3.717 2.093c-1.093 1.999-3.467 3.748-6.747 3.748-4.405 0-7.622-3.061-7.622-8.247 0-5.123 3.28-8.246 7.528-8.246 4.218 0 7.03 2.998 7.03 7.278 0 1.28-.22 2.155-.22 2.155zm-6.81-6.247c-1.624 0-2.936 1.155-3.28 3.31h6.217c0-1.905-1.218-3.31-2.937-3.31zm14.745-9.528H61.64v18.118c0 1.624.349 2.807 1.047 3.546.697.74 1.806 1.109 3.326 1.109.52 0 1.052-.058 1.594-.172.54-.115.978-.276 1.311-.484l.375-2.968a6.87 6.87 0 0 1-.921.266c-.26.052-.567.078-.921.078-.584 0-.828-.146-1.047-.438-.219-.291-.328-.812-.328-1.561V22.167zM80.07 40.254c0-1.25-1.75-1.53-3.78-2.093-2.374-.625-5.341-1.812-5.341-4.81 0-2.968 2.842-4.842 6.216-4.842 3.124 0 5.998 1.499 7.216 3.592l-3.78 2.124c-.375-1.406-1.562-2.499-3.28-2.499-1.124 0-2.061.5-2.061 1.406 0 1.187 2.061 1.312 4.404 2.061 2.468.781 4.717 1.906 4.717 4.78 0 3.155-2.937 5.03-6.341 5.03-3.687 0-6.592-1.563-7.872-4.062l3.842-2.155c.5 1.718 1.874 2.999 3.967 2.999 1.219 0 2.093-.531 2.093-1.531zm7.622 4.374h4.436V28.883h-4.436v15.745zm4.78-20.087c0 1.437-1.125 2.468-2.562 2.468-1.437 0-2.561-1.03-2.561-2.468 0-1.437 1.124-2.468 2.561-2.468 1.437 0 2.562 1.031 2.562 2.468zm18.15 9.997c0-3.905-1.906-6.03-4.936-6.03-2.594 0-3.937 1.531-4.718 2.968h-.094l.22-2.593h-4.405v15.745h4.404v-9.34c0-1.813 1.062-3.062 2.718-3.062s2.374 1.093 2.374 3.186v9.216h4.436v-10.09zm13.868.593l5.78 9.497h-4.811l-3.874-6.31-2.093 2.654v3.656h-4.404V22.01h4.404v10.434c0 1.936-.218 3.873-.218 3.873h.093s1.031-1.718 1.906-2.936l3.374-4.499h5.154l-5.31 6.248zm7.935 9.497h4.436V28.883h-4.436v15.745zm4.78-20.087c0 1.437-1.125 2.468-2.562 2.468-1.437 0-2.562-1.03-2.562-2.468 0-1.437 1.125-2.468 2.562-2.468 1.437 0 2.561 1.031 2.561 2.468zM35.618 44.388h4.593V22.77h-4.593v8.56h-8.621v-8.56h-4.592v21.617h4.592v-8.966h8.621z"/>
  </g>
</svg>
