<svg xmlns="http://www.w3.org/2000/svg" id="Layer_1" data-name="Layer 1" viewBox="0 0 30 30">
  <defs>
    <style>
      .cls-1{fill:#bd2719;}
    </style>
  </defs>
  <path d="M5.47 5.47A13 13 0 0 1 15 1.5a13 13 0 0 1 9.53 4 13 13 0 0 1 4 9.53 13 13 0 0 1-4 9.53 13 13 0 0 1-9.53 4 13 13 0 0 1-9.53-4A13 13 0 0 1 1.5 15a13 13 0 0 1 3.97-9.53zM23 7.05a10.87 10.87 0 0 0-8-3.3 10.87 10.87 0 0 0-7.95 3.3 10.87 10.87 0 0 0-3.3 8 10.87 10.87 0 0 0 3.3 8 10.87 10.87 0 0 0 8 3.3A10.87 10.87 0 0 0 23 23a10.87 10.87 0 0 0 3.25-8A10.87 10.87 0 0 0 23 7.05zm-9.07 1.2h2.24v9h-2.29zm0 11.25h2.24v2.25h-2.29z" class="cls-1"/>
</svg>
