<svg id="Layer_1" data-name="Layer 1" xmlns="http://www.w3.org/2000/svg" viewBox="0 0 31 30"><defs><style>.cls-2{fill:#666;}</style></defs><title>Artboard 17</title><path class="cls-2" d="M6,5.46a13,13,0,0,1,9.54-4,13,13,0,0,1,9.54,4A13,13,0,0,1,29,15a13,13,0,0,1-4,9.54,13,13,0,0,1-9.54,4,13,13,0,0,1-9.54-4A13,13,0,0,1,2,15,13,13,0,0,1,6,5.46ZM23.58,6.92A11,11,0,0,0,15.5,3.58,11,11,0,0,0,7.42,6.92,11,11,0,0,0,4.08,15a11,11,0,0,0,3.34,8.08,11,11,0,0,0,8.08,3.34,11,11,0,0,0,8.08-3.34A11,11,0,0,0,26.92,15,11,11,0,0,0,23.58,6.92ZM9.27,14H21.73V16H9.27Z"/></svg>
