<?xml version="1.0" encoding="UTF-8"?>
<svg width="30px" height="30px" viewBox="0 0 30 30" version="1.1" xmlns="http://www.w3.org/2000/svg" xmlns:xlink="http://www.w3.org/1999/xlink">
    <!-- Generator: Sketch 48.2 (47327) - http://www.bohemiancoding.com/sketch -->
    <title>Shape</title>
    <desc>Created with Sketch.</desc>
    <defs></defs>
    <g id="Artboard" stroke="none" stroke-width="1" fill="none" fill-rule="evenodd" transform="translate(-682.000000, -411.000000)">
        <path d="M702.185781,428.788555 C703.866742,426.833152 704.298456,424.910806 704.298456,422.149228 C704.298456,415.991424 699.307033,411 693.149228,411 C686.991424,411 682,415.991424 682,422.149228 C682,428.307033 686.991424,433.298456 693.149228,433.298456 C695.910806,433.298456 697.741861,432.925683 699.697264,431.244723 L709.444254,441 L712,438.444254 L702.185781,428.788555 Z M693.149228,429.867925 C688.878216,429.867925 685.430532,426.42024 685.430532,422.149228 C685.430532,417.878216 688.878216,414.430532 693.149228,414.430532 C697.42024,414.430532 700.867925,417.878216 700.867925,422.149228 C700.867925,426.42024 697.42024,429.867925 693.149228,429.867925 L693.149228,429.867925 Z" id="Shape" fill="#222222"></path>
    </g>
</svg>
