<?xml version="1.0" encoding="UTF-8"?>
<svg width="18px" height="14px" viewBox="0 0 18 14" version="1.1" xmlns="http://www.w3.org/2000/svg" xmlns:xlink="http://www.w3.org/1999/xlink">
    <!-- Generator: Sketch 44.1 (41455) - http://www.bohemiancoding.com/sketch -->
    <title>ic_pageview_black_24px</title>
    <desc>Created with Sketch.</desc>
    <defs></defs>
    <g id="Page-1" stroke="none" stroke-width="1" fill="none" fill-rule="evenodd">
        <g id="Desktop-Copy-6" transform="translate(-362.000000, -113.000000)">
            <g id="Group-4" transform="translate(347.000000, 96.000000)">
                <g id="ic_pageview_black_24px" transform="translate(14.000000, 14.000000)">
                    <polygon id="Shape" points="0 0 20 0 20 20 0 20"></polygon>
                    <path d="M9.58333333,7.5 C8.43333333,7.5 7.5,8.43333333 7.5,9.58333333 C7.5,10.7333333 8.43333333,11.6666667 9.58333333,11.6666667 C10.7333333,11.6666667 11.6666667,10.7333333 11.6666667,9.58333333 C11.6666667,8.43333333 10.7333333,7.5 9.58333333,7.5 Z M16.6666667,3.33333333 L3.33333333,3.33333333 C2.41666667,3.33333333 1.66666667,4.08333333 1.66666667,5 L1.66666667,15 C1.66666667,15.9166667 2.41666667,16.6666667 3.33333333,16.6666667 L16.6666667,16.6666667 C17.5833333,16.6666667 18.3333333,15.9166667 18.3333333,15 L18.3333333,5 C18.3333333,4.08333333 17.5833333,3.33333333 16.6666667,3.33333333 Z M13.9916667,15.175 L11.5666667,12.75 C10.9916667,13.1166667 10.3083333,13.3333333 9.575,13.3333333 C7.50833333,13.3333333 5.83333333,11.6583333 5.83333333,9.58333333 C5.83333333,7.50833333 7.50833333,5.83333333 9.58333333,5.83333333 C11.6583333,5.83333333 13.3333333,7.50833333 13.3333333,9.58333333 C13.3333333,10.3166667 13.1166667,10.9916667 12.75,11.575 L15.175,13.9916667 L13.9916667,15.175 Z" id="Shape" fill="#FFFFFF" fill-rule="nonzero"></path>
                </g>
            </g>
        </g>
    </g>
</svg>