<svg xmlns="http://www.w3.org/2000/svg" xmlns:xlink="http://www.w3.org/1999/xlink" width="16px" height="16px" viewBox="0 0 16 16" version="1.1">
    <title>Question</title>
    <desc>Created with Sketch.</desc>
    <defs/>
    <g id="Page-1" stroke="none" stroke-width="1" fill="none" fill-rule="evenodd">
        <g id="Artboard" transform="translate(-711.000000, -446.000000)" fill="#E1AE1A">
            <g id="Group-2" transform="translate(711.000000, 446.000000)">
                <path d="M12.7085714,3.29142857 C11.4021587,1.98603175 9.83365079,1.3328254 8,1.3328254 C6.16634921,1.3328254 4.5968254,1.98603175 3.29142857,3.29142857 C1.98603175,4.59784127 1.3328254,6.16634921 1.3328254,8 C1.3328254,9.83365079 1.98603175,11.4031746 3.29142857,12.7085714 C4.5968254,14.0139683 6.16634921,14.6671746 8,14.6671746 C9.83365079,14.6671746 11.4021587,14.0139683 12.7085714,12.7085714 C14.0139683,11.4031746 14.6671746,9.83365079 14.6671746,8 C14.6671746,6.16634921 14.0139683,4.59784127 12.7085714,3.29142857 Z M8,0 C10.1942857,0 12.0766984,0.785269841 13.6462222,2.35377778 C15.2147302,3.92330159 16,5.80571429 16,8 C16,10.1942857 15.2147302,12.0766984 13.6462222,13.6462222 C12.0766984,15.215746 10.1942857,16 8,16 C5.80571429,16 3.92330159,15.215746 2.35377778,13.6462222 C0.784253968,12.0766984 0,10.1942857 0,8 C0,5.80571429 0.784253968,3.92330159 2.35377778,2.35377778 C3.92330159,0.785269841 5.80571429,0 8,0 Z" id="attention!-icon"/>
                <text id="?" font-family="MicrosoftSansSerif, Microsoft Sans Serif" font-size="14" font-weight="normal">
                    <tspan x="4" y="13">?</tspan>
                </text>
            </g>
        </g>
    </g>
</svg>
