<svg data-name="Layer 1" xmlns="http://www.w3.org/2000/svg" viewBox="0 0 30 30"><path d="M23 11.77a10.89 10.89 0 0 1-2.54 7.1l9 8.93-1.66 1.68-8.93-9a10.89 10.89 0 0 1-7.1 2.52 10.81 10.81 0 0 1-7.95-3.31 10.83 10.83 0 0 1-3.3-7.94 10.84 10.84 0 0 1 3.3-7.95 10.84 10.84 0 0 1 8-3.3 10.83 10.83 0 0 1 7.94 3.3A10.81 10.81 0 0 1 23 11.77zm-20.25 0a8.66 8.66 0 0 0 2.65 6.36 8.68 8.68 0 0 0 6.37 2.64 8.67 8.67 0 0 0 6.36-2.64 8.67 8.67 0 0 0 2.64-6.36 8.68 8.68 0 0 0-2.64-6.37 8.66 8.66 0 0 0-6.36-2.63A8.67 8.67 0 0 0 5.4 5.4a8.67 8.67 0 0 0-2.63 6.37z" fill="#222"/></svg>
