<?xml version="1.0" encoding="UTF-8"?>
<svg width="28px" height="28px" viewBox="0 0 28 28" version="1.1" xmlns="http://www.w3.org/2000/svg" xmlns:xlink="http://www.w3.org/1999/xlink">
    <!-- Generator: Sketch 46.2 (44496) - http://www.bohemiancoding.com/sketch -->
    <title>Haku-mob@3x</title>
    <desc>Created with Sketch.</desc>
    <defs></defs>
    <g id="Page-1" stroke="none" stroke-width="1" fill="none" fill-rule="evenodd">
        <g id="Hakutulokset-QR-koodi" transform="translate(-316.000000, -54.000000)" fill="#435152">
            <g id="noun_747367_cc" transform="translate(316.000000, 54.000000)">
                <path d="M27.4027963,24.5208444 L22.1020852,19.2201333 C21.6211074,18.7388444 20.9596852,18.5534222 20.3352852,18.6542222 L19.1561741,17.4751111 C22.5426185,13.2514667 22.2794185,7.0672 18.3628407,3.15062222 C16.2625296,1.05031111 13.5095074,0 10.7567963,0 C8.00377407,0 5.25106296,1.05031111 3.15044074,3.15062222 C-1.05049259,7.35155556 -1.05049259,14.1624 3.15044074,18.3630222 C5.25075185,20.4633333 8.00377407,21.5136444 10.7567963,21.5136444 C13.1371074,21.5136444 15.5164852,20.7268444 17.4752407,19.1563556 L18.6543519,20.3354667 C18.5535519,20.9595556 18.7389741,21.6209778 19.220263,22.1022667 L24.5209741,27.4029778 C24.918263,27.8008889 25.4403074,28 25.9617296,28 C26.4831519,28 27.0048852,27.8008889 27.4027963,27.4029778 C28.1989296,26.6071556 28.1989296,25.3166667 27.4027963,24.5208444 Z M10.757952,20.1381336 C8.25239275,20.1381336 5.89694418,19.1625885 4.12522056,17.3908649 C2.35349694,15.6191412 1.37795185,13.2636927 1.37795185,10.7581334 C1.37795185,8.25257423 2.35349694,5.89712567 4.12522056,4.12540204 C5.89694418,2.35367842 8.25239275,1.37813333 10.757952,1.37813333 C13.2635112,1.37813333 15.6189597,2.35367842 17.3906834,4.12540204 C19.162407,5.89712567 20.1379521,8.25257423 20.1379521,10.7581334 C20.1379521,13.2636927 19.162407,15.6191412 17.3906834,17.3908649 C15.6189597,19.1625885 13.2631629,20.1381336 10.757952,20.1381336 Z" id="Haku-mob"></path>
            </g>
        </g>
    </g>
</svg>