<svg id="Layer_1" data-name="Layer 1" xmlns="http://www.w3.org/2000/svg" viewBox="0 0 35.1 20.48"><defs><style>.cls-1{fill:#009246;}</style></defs><title>Artboard 16</title><path class="cls-1" d="M19.44,15.26A6.77,6.77,0,0,1,18,13.13h2.59a3.31,3.31,0,0,0,.45.54,4.59,4.59,0,0,0,3.38,1.39h2.38a4.39,4.39,0,0,0,3.36-1.36,4.68,4.68,0,0,0,1.42-3.41,4.61,4.61,0,0,0-1.4-3.38,4.46,4.46,0,0,0-3.38-1.39H24.41a4.55,4.55,0,0,0-3.83,1.94H18a6.7,6.7,0,0,1,1.45-2.14,6.68,6.68,0,0,1,5-2h2.28a6.72,6.72,0,0,1,5,2,6.72,6.72,0,0,1,2,5,6.71,6.71,0,0,1-2,5,6.68,6.68,0,0,1-5,2H24.46A6.61,6.61,0,0,1,19.44,15.26Zm-8.16-3.78V9.1H24v2.38ZM3.53,15.26a6.75,6.75,0,0,1-2-5,6.77,6.77,0,0,1,2-5,6.68,6.68,0,0,1,5-2h2.28a6.72,6.72,0,0,1,5,2A6.51,6.51,0,0,1,17.3,7.46H14.71a3.38,3.38,0,0,0-.45-.55,4.57,4.57,0,0,0-3.38-1.39H8.5A4.43,4.43,0,0,0,5.14,6.89a4.69,4.69,0,0,0-1.42,3.4,4.62,4.62,0,0,0,1.4,3.38A4.43,4.43,0,0,0,8.5,15.06h2.38a4.53,4.53,0,0,0,3.83-1.93H17.3a6.58,6.58,0,0,1-1.44,2.13,6.68,6.68,0,0,1-5,2H8.55A6.61,6.61,0,0,1,3.53,15.26Z"/></svg>
