<svg xmlns="http://www.w3.org/2000/svg" id="Layer_1" data-name="Layer 1" viewBox="0 0 30 30">
  <defs>
    <style>
      .cls-1{fill:#0078C0;}
    </style>
  </defs>
  <path d="M15 1.5a12.74 12.74 0 0 1 9.35 3.83l-1.43 1.49A10.79 10.79 0 0 0 15 3.58a11 11 0 0 0-8.08 3.34A11 11 0 0 0 3.58 15a11 11 0 0 0 3.34 8.08A11 11 0 0 0 15 26.42a11 11 0 0 0 8.08-3.34 11.28 11.28 0 0 0 3-10.68l1.69-1.68A12.12 12.12 0 0 1 28.5 15a13 13 0 0 1-4 9.54 13 13 0 0 1-9.54 4 13 13 0 0 1-9.54-4A13 13 0 0 1 1.5 15a13 13 0 0 1 4-9.54A13 13 0 0 1 15 1.5zm11.68 4.41l1.56 1.56-12.46 12.46-.78.65-.78-.65L9 14.74l1.56-1.56L15 17.66z" class="cls-1"/>
</svg>
