<?xml version="1.0" encoding="UTF-8"?>
<svg width="23px" height="24px" viewBox="0 0 23 24" version="1.1" xmlns="http://www.w3.org/2000/svg" xmlns:xlink="http://www.w3.org/1999/xlink">
    <!-- Generator: Sketch 44.1 (41455) - http://www.bohemiancoding.com/sketch -->
    <title>Group 8</title>
    <desc>Created with Sketch.</desc>
    <defs></defs>
    <g id="Page-1" stroke="none" stroke-width="1" fill="none" fill-rule="evenodd">
        <g id="Desktop-Copy-11" transform="translate(-919.000000, -105.000000)">
            <g id="Group-7" transform="translate(904.000000, 96.000000)">
                <g id="Group-6">
                    <g id="Group-8" transform="translate(13.000000, 10.000000)">
                        <g id="ic_chat_black_24px" transform="translate(0.714286, 3.714286)">
                            <path d="M17.1428571,1.71428571 L3.42857143,1.71428571 C2.48571429,1.71428571 1.72285714,2.48571429 1.72285714,3.42857143 L1.71428571,18.8571429 L5.14285714,15.4285714 L17.1428571,15.4285714 C18.0857143,15.4285714 18.8571429,14.6571429 18.8571429,13.7142857 L18.8571429,3.42857143 C18.8571429,2.48571429 18.0857143,1.71428571 17.1428571,1.71428571 Z M5.14285714,7.71428571 L15.4285714,7.71428571 L15.4285714,9.42857143 L5.14285714,9.42857143 L5.14285714,7.71428571 Z M12,12 L5.14285714,12 L5.14285714,10.2857143 L12,10.2857143 L12,12 Z M15.4285714,6.85714286 L5.14285714,6.85714286 L5.14285714,5.14285714 L15.4285714,5.14285714 L15.4285714,6.85714286 Z" id="Shape" fill="#FFFFFF" fill-rule="nonzero"></path>
                            <polygon id="Shape" points="0 0 20.5714286 0 20.5714286 20.5714286 0 20.5714286"></polygon>
                        </g>
                        <circle id="Oval" stroke="#0D79C8" fill="#EF008C" cx="19.5714286" cy="4.57142857" r="4.28571429"></circle>
                    </g>
                </g>
            </g>
        </g>
    </g>
</svg>