<svg xmlns="http://www.w3.org/2000/svg" id="Layer_1" data-name="Layer 1" viewBox="0 0 30 30">
  <defs>
    <style>
      .cls-1{fill:#222;}
    </style>
  </defs>
  <path d="M12.75 1.5h4.5a2.16 2.16 0 0 1 2.25 2.25v1.13h6.75v2.24h-1.13v18a3.35 3.35 0 0 1-3.37 3.38H8.25a3.35 3.35 0 0 1-3.37-3.38v-18H3.75V4.88h6.75V3.75a2.16 2.16 0 0 1 2.25-2.25zM7.12 7.12v18a1.09 1.09 0 0 0 1.13 1.13h13.5a1.09 1.09 0 0 0 1.13-1.13v-18zm2.26 3.38h2.24v12.38H9.38zm3.37-6.75v1.13h4.5V3.75zm1.13 6.75h2.24v12.38h-2.24zm4.5 0h2.24v12.38h-2.24z" class="cls-1"/>
</svg>
